#!OML:ASF F:\VICON\USERDATA\INSTALL\rory3\rory3.ASF
:FULLY-SPECIFIED
:DEGREES
1331
root 0.562569 15.5164 -0.146042 -8.01874 5.22425 -7.06431
lowerback 5.85188 1.43823 -8.97752
upperback -2.94365 0.87558 -4.68846
thorax -6.48187 0.700056 -0.00822438
lowerneck -12.5311 -6.17463 -12.9399
upperneck 7.15234 -7.17003 10.1877
head 5.03256 -3.2892 4.68385
rclavicle 2.90226e-014 2.22639e-014
rhumerus -29.5313 -27.9203 -31.0031
rradius 70.3388
rwrist 27.4691
rhand 12.0469 8.7496
rfingers 7.12502
rthumb 37.0651 -17.298
lclavicle 2.90226e-014 2.22639e-014
lhumerus -109.884 -57.7453 130.713
lradius 109.614
lwrist 34.3356
lhand 8.20744 9.87886
lfingers 7.12502
lthumb 33.4242 36.7886
rfemur 0.565095 3.34004 23.7885
rtibia 29.4534
rfoot -17.2923 -12.9316
rtoes -12.1553
lfemur -6.03889 -11.1085 -11.7716
ltibia 37.7192
lfoot -19.173 1.55461
ltoes -14.2265
1332
root 0.564816 15.5179 -0.143206 -7.95114 5.01048 -6.97223
lowerback 5.4893 1.4206 -8.78029
upperback -2.97343 0.918168 -4.59991
thorax -6.30288 0.710575 -0.0186377
lowerneck -12.4051 -6.14237 -12.8746
upperneck 7.09106 -7.15939 10.2684
head 4.99275 -3.28088 4.70306
rclavicle -6.36111e-015 2.8625e-014
rhumerus -29.208 -27.9922 -31.0803
rradius 70.6255
rwrist 27.5524
rhand 12.1432 8.7755
rfingers 7.12502
rthumb 37.1561 -17.2484
lclavicle -6.36111e-015 2.8625e-014
lhumerus -109.823 -57.8181 130.713
lradius 109.493
lwrist 34.2883
lhand 8.43431 9.96821
lfingers 7.12502
lthumb 33.6399 36.8312
rfemur 0.497753 3.51335 23.7066
rtibia 29.4621
rfoot -17.2785 -12.8753
rtoes -12.3253
lfemur -5.96454 -10.9838 -11.8609
ltibia 37.6103
lfoot -19.0754 1.69122
ltoes -14.4446
1333
root 0.567578 15.5192 -0.142269 -7.93063 4.82597 -6.8427
lowerback 5.23746 1.3848 -8.63683
upperback -3.00774 0.916812 -4.49745
thorax -6.19149 0.704165 0.0166383
lowerneck -12.3983 -6.11037 -12.848
upperneck 7.26054 -7.14237 10.3489
head 5.04434 -3.26822 4.72652
rclavicle 1.82882e-014 3.49861e-014
rhumerus -28.8436 -27.9854 -31.1689
rradius 70.893
rwrist 27.6725
rhand 12.21 8.94788
rfingers 7.12502
rthumb 37.2193 -17.0596
lclavicle 1.82882e-014 3.49861e-014
lhumerus -109.755 -57.7874 130.736
lradius 109.371
lwrist 34.2565
lhand 8.34978 10.0475
lfingers 7.12502
lthumb 33.5595 36.928
rfemur 0.492286 3.67802 23.5761
rtibia 29.4468
rfoot -17.3057 -12.8034
rtoes -12.1898
lfemur -5.85735 -10.9017 -12.0193
ltibia 37.5237
lfoot -19.1431 1.80475
ltoes -14.4861
1334
root 0.570828 15.5212 -0.143058 -7.95628 4.67607 -6.79827
lowerback 5.1291 1.33843 -8.41422
upperback -3.07643 0.887436 -4.36571
thorax -6.19604 0.685339 0.0369503
lowerneck -12.3773 -6.06668 -12.8002
upperneck 7.5163 -7.11685 10.3953
head 5.11704 -3.25348 4.73674
rclavicle 1.78906e-014 -3.49861e-014
rhumerus -28.5306 -27.8225 -31.2044
rradius 71.1866
rwrist 27.6133
rhand 12.2224 8.9896
rfingers 7.12502
rthumb 37.231 -17.0148
lclavicle 1.78906e-014 -3.49861e-014
lhumerus -109.706 -57.713 130.775
lradius 109.217
lwrist 34.2693
lhand 8.08333 9.96861
lfingers 7.12502
lthumb 33.3063 36.9037
rfemur 0.509481 3.75279 23.5235
rtibia 29.4539
rfoot -17.3276 -12.7436
rtoes -12.4047
lfemur -5.71889 -10.8482 -12.0916
ltibia 37.4189
lfoot -19.1834 1.88717
ltoes -14.3695
1335
root 0.574132 15.5233 -0.144093 -7.96913 4.53691 -6.75491
lowerback 4.95159 1.28981 -8.21101
upperback -3.10486 0.865877 -4.21444
thorax -6.11899 0.66859 0.0903692
lowerneck -12.3214 -6.02043 -12.7534
upperneck 7.63229 -7.08066 10.4248
head 5.13889 -3.23482 4.74355
rclavicle -3.18055e-014 5.40694e-014
rhumerus -28.217 -27.5239 -31.2107
rradius 71.5224
rwrist 27.3726
rhand 12.0515 8.80584
rfingers 7.12502
rthumb 37.0694 -17.2406
lclavicle -3.18055e-014 5.40694e-014
lhumerus -109.324 -57.7144 130.497
lradius 109.04
lwrist 34.1886
lhand 8.36928 9.98625
lfingers 7.12502
lthumb 33.5781 36.8627
rfemur 0.510538 3.84033 23.4737
rtibia 29.4617
rfoot -17.3518 -12.669
rtoes -12.4206
lfemur -5.60446 -10.7909 -12.1594
ltibia 37.3108
lfoot -19.2046 1.96475
ltoes -14.3172
1336
root 0.576468 15.5251 -0.144591 -7.96442 4.39123 -6.58719
lowerback 4.7106 1.24021 -8.13357
upperback -3.09814 0.840845 -4.10343
thorax -5.97057 0.651732 0.173256
lowerneck -12.4 -5.97431 -12.707
upperneck 7.86204 -7.04176 10.5034
head 5.21988 -3.20831 4.76417
rclavicle 6.75868e-015 6.36111e-015
rhumerus -27.8794 -27.2149 -31.3066
rradius 71.8674
rwrist 27.069
rhand 11.8745 8.50673
rfingers 7.12502
rthumb 36.902 -17.583
lclavicle 6.75868e-015 6.36111e-015
lhumerus -108.762 -57.7375 130.048
lradius 108.856
lwrist 34.0172
lhand 8.90368 10.1454
lfingers 7.12502
lthumb 34.0858 36.9101
rfemur 0.518639 3.9833 23.2998
rtibia 29.4511
rfoot -17.3507 -12.6216
rtoes -12.2325
lfemur -5.49319 -10.6822 -12.3565
ltibia 37.2116
lfoot -19.2461 2.07718
ltoes -14.4448
1337
root 0.579139 15.526 -0.14431 -7.99314 4.21426 -6.49449
lowerback 4.4943 1.22689 -7.97299
upperback -3.0901 0.867756 -3.96563
thorax -5.83672 0.658037 0.232181
lowerneck -12.4751 -5.98136 -12.7301
upperneck 8.1362 -7.06823 10.5937
head 5.32487 -3.21517 4.79338
rclavicle 3.81667e-014 -2.54444e-014
rhumerus -27.5594 -27.1543 -31.3165
rradius 72.1415
rwrist 26.9493
rhand 11.7809 8.37474
rfingers 7.12502
rthumb 36.8135 -17.7377
lclavicle 3.81667e-014 -2.54444e-014
lhumerus -108.587 -57.761 130.088
lradius 108.632
lwrist 33.9821
lhand 8.90659 10.1769
lfingers 7.12502
lthumb 34.0886 36.9409
rfemur 0.553871 4.13356 23.2143
rtibia 29.4492
rfoot -17.3228 -12.5386
rtoes -12.135
lfemur -5.3432 -10.5731 -12.4689
ltibia 37.1136
lfoot -19.2293 2.15483
ltoes -14.3093
